# xmcd
#
# Track frame offsets:
#	150
#	5570
#	16952
#	28657
#	42711
#	58478
#	69241
#	78814
#	94802
#	104780
#	113191
#
# Disc length: 1692 seconds
#
# Revision: 0
# Processed by: cddbd v1.5.1PL0 Copyright (c) Steve Scherf et al.
# Submitted via: EasyCDDAExtractor 4.6.9.1
#
DISCID=93069a0b
DTITLE=Jimmy Martin - Paul Williams - J.D. Crowe - Big Jam Session
DYEAR=1998
DGENRE=Bluegrass
TTITLE0=Intro
TTITLE1=Roll In My Sweet Baby's Arms
TTITLE2=Molly And Tenbrooks
TTITLE3=John Henry
TTITLE4=Angel Band
TTITLE5=Paddy On The Turnpike
TTITLE6=Jimmy's Mule
TTITLE7=Ruby
TTITLE8=Little Maggie
TTITLE9=Put My Little Shoes Away
TTITLE10=Gotta Travel On
EXTD=
EXTT0=
EXTT1=
EXTT2=
EXTT3=
EXTT4=
EXTT5=
EXTT6=
EXTT7=
EXTT8=
EXTT9=
EXTT10=
PLAYORDER=
